<svg xmlns="http://www.w3.org/2000/svg" viewBox="0 0 376 100" role="img" aria-label="Sodae"><g transform="scale(0.15384615384615385) translate(-170 -200)"><defs><linearGradient id="body" x1="0" y1="243" x2="0" y2="821" gradientUnits="userSpaceOnUse"><stop offset="0.55" stop-color="#232427"/><stop offset="1" stop-color="#6c717b"/></linearGradient></defs><path d="M675.08,448v0h-.64c-6.87-.63-39.81,0-39.81,0H430s-8.94-.5-9-9.57,8.32-10.33,8.32-10.33H853.22v-186S417.74,243,395,243c-101.11,0-180.61,91.52-180.61,194.22,0,109.06,89.54,197.46,199.75,197.46,94.71,0,230.32-.48,230.32-.48s8.61-1.1,8.61,8.66-8.61,9-8.61,9H216.36v186l437.24-.29c115.78,0,212-84.23,212-194.06C865.65,496.38,771.52,448,675.08,448Z" fill="url(#body)"/><rect x="791.74" y="241.68" width="62" height="62" fill="#232427" stroke="#fff" stroke-width="2"/><rect x="791.74" y="304.15" width="62" height="62" fill="#232427" stroke="#fff" stroke-width="2"/><rect x="728.7" y="241.68" width="62" height="62" fill="#232427" stroke="#fff" stroke-width="2"/><rect x="728.71" y="304.15" width="62" height="62" fill="#232427" stroke="#fff" stroke-width="2"/><rect x="665.79" y="241.68" width="62" height="62" fill="none" stroke="#fff" stroke-width="2"/><rect x="665.8" y="304.15" width="62" height="62" fill="none" stroke="#fff" stroke-width="2"/><rect x="728.71" y="367.15" width="62" height="62" fill="none" stroke="#fff" stroke-width="2"/><rect x="790.94" y="366.84" width="62" height="62" fill="none" stroke="#fff" stroke-width="2"/><rect x="805.9" y="294.84" width="62" height="62" transform="translate(53.28 -112.92) rotate(7.97)" fill="#232427"/><rect x="737.49" y="224.83" width="62" height="62" transform="translate(22.52 -59.69) rotate(4.51)" fill="#232427"/><rect x="733.97" y="295.65" width="62" height="62" transform="translate(19.97 -43.3) rotate(3.28)" fill="#232427"/><rect x="822.43" y="219.87" width="62" height="62" transform="translate(158.76 -304.75) rotate(22.27)" fill="#232427"/><path d="M647.61,463.92l6,78.55a100.62,100.62,0,0,0,92.62,92.62l78.55,6-78.55,6a100.62,100.62,0,0,0-92.62,92.62l-6,78.55-6-78.55a100.64,100.64,0,0,0-92.63-92.62l-78.55-6,78.55-6a100.64,100.64,0,0,0,92.63-92.62Z" fill="#fff"/></g><path d="M158.79 77.06Q146.79 77.06 140.36 72.35Q133.92 67.65 133.92 58.55L133.92 58.08L145.69 58.08L145.69 59.49Q145.69 63.25 148.36 64.78Q151.02 66.31 158.79 66.31Q165.61 66.31 168 65.22Q170.40 64.12 170.40 61.37Q170.40 59.02 168.83 57.88Q167.26 56.75 163.18 56.04L148.43 53.92Q133.45 51.57 133.45 39.18Q133.45 32.43 139.38 27.69Q145.30 22.94 157.53 22.94Q169.30 22.94 175.26 27.88Q181.22 32.82 181.22 41.45L181.22 41.92L169.38 41.92L169.38 40.82Q169.38 36.90 166.67 35.29Q163.96 33.69 156.36 33.69Q150.16 33.69 147.73 34.90Q145.30 36.12 145.30 38.71Q145.30 40.98 146.67 42Q148.04 43.02 151.41 43.65L166.16 46Q182.16 48.59 182.16 60.82Q182.16 67.80 176.36 72.43Q170.55 77.06 158.79 77.06M224.16 71.49Q218 77.06 207.89 77.06Q197.77 77.06 191.61 71.49Q185.45 65.92 185.45 56.67Q185.45 47.33 191.61 41.76Q197.77 36.20 207.89 36.20Q218 36.20 224.16 41.76Q230.32 47.33 230.32 56.67Q230.32 65.92 224.16 71.49M199.57 64.27Q202 66.63 207.89 66.63Q213.77 66.63 216.20 64.27Q218.63 61.92 218.63 56.67Q218.63 51.41 216.16 48.98Q213.69 46.55 207.89 46.55Q202 46.55 199.57 48.94Q197.14 51.33 197.14 56.67Q197.14 61.92 199.57 64.27M252.67 77.06Q243.65 77.06 238.67 71.57Q233.69 66.08 233.69 56.67Q233.69 47.18 238.51 41.69Q243.34 36.20 252.04 36.20Q258.79 36.20 262.63 39.22Q266.47 42.24 267.49 47.41L268.20 47.41L268.20 23.73L279.96 23.73L279.96 76.27L268.98 76.27L268.98 65.37L268.36 65.37Q266.08 77.06 252.67 77.06M245.61 56.67Q245.61 61.92 248.24 64.12Q250.87 66.31 256.67 66.31Q262.47 66.31 265.34 64.12Q268.20 61.92 268.20 56.90L268.20 56.27Q268.20 51.25 265.34 49.10Q262.47 46.94 256.67 46.94Q250.87 46.94 248.24 49.14Q245.61 51.33 245.61 56.67M298.24 77.06Q291.89 77.06 288.28 74.27Q284.67 71.49 284.67 66.55Q284.67 57.61 297.38 56.27L314.24 54.55L314.24 53.06Q314.24 49.29 312.36 47.92Q310.47 46.55 305.69 46.55Q301.14 46.55 299.22 47.92Q297.30 49.29 297.30 52.59L297.30 52.90L285.45 52.90L285.45 52.67Q285.45 45.29 291.18 40.75Q296.90 36.20 306.55 36.20Q316.12 36.20 320.98 40.75Q325.85 45.29 325.85 53.22L325.85 76.27L314.87 76.27L314.87 67.25L314.24 67.25Q312.83 71.88 308.75 74.47Q304.67 77.06 298.24 77.06M296.51 65.76Q296.51 68.75 301.61 68.75Q307.81 68.75 310.90 67.06Q314 65.37 314.24 61.29L300.59 62.86Q296.51 63.18 296.51 65.76M352.67 77.06Q342.47 77.06 336.55 71.92Q330.63 66.78 330.63 56.67Q330.63 47.33 336.63 41.76Q342.63 36.20 352.43 36.20Q362.24 36.20 368.04 41.18Q373.85 46.16 373.85 55.25Q373.85 56.35 373.53 59.02L341.53 59.02Q341.77 63.65 344.20 65.65Q346.63 67.65 352.28 67.65Q357.38 67.65 359.53 66.35Q361.69 65.06 361.69 62.47L361.69 61.69L373.45 61.69L373.45 62.55Q373.45 68.98 367.73 73.02Q362 77.06 352.67 77.06M359.85 47.14Q357.38 45.37 352.20 45.37Q347.02 45.37 344.55 47.18Q342.08 48.98 341.69 52.82L362.55 52.82Q362.32 48.90 359.85 47.14" fill="#040506"/></svg>
